<svg width="449" height="449" viewBox="0 0 449 449" fill="none" xmlns="http://www.w3.org/2000/svg">
<path d="M218.465 112.196C227.711 110.415 235.586 112.347 241.757 119.621C242.928 121.001 243.303 122.002 241.489 123.302C239.167 124.965 237.483 127.28 236.043 130.33C238.571 128.135 240.724 126.211 243.27 124.799C253.087 119.354 265.337 124.704 267.796 135.534C269.687 143.862 262.897 152.514 254.384 152.747C250.247 152.86 246.44 151.853 242.808 149.929C244.265 151.998 246.233 153.441 249.74 154.573C251.345 155.091 251.882 155.889 251.853 157.55C251.761 162.883 251.827 168.218 251.818 173.552C251.817 174.196 251.949 174.874 251.535 175.45C251.025 175.791 250.537 175.568 250.059 175.417C233.052 170.053 216.028 170.051 199.015 175.34C197.231 175.894 196.775 175.32 196.792 173.673C196.847 168.12 196.89 162.566 196.862 157.013C196.855 155.67 197.41 155.051 198.639 154.687C201.483 153.844 204.001 152.428 206.377 149.746C202.436 151.537 198.943 152.893 195.013 152.791C188.322 152.618 183.004 148.939 181.009 142.841C178.969 136.605 181.04 129.927 186.368 126.076C190.904 122.799 195.969 121.91 201.342 123.489C202.997 123.976 203.937 123.84 204.925 122.267C208.076 117.249 212.573 113.903 218.465 112.196Z" fill="#0B3B2E"/>
<path d="M260.836 286.626C261.665 285.073 261.726 283.545 261.726 282.002C261.719 244.741 261.705 207.481 261.722 170.221C261.724 165.959 260.049 162.931 255.928 161.41C254.718 160.963 254.114 158.449 254.718 156.566C255.237 154.945 256.468 155.665 257.446 155.887C263.5 157.258 267.596 162.265 267.6 168.466C267.627 206.968 267.633 245.47 267.611 283.973C267.607 290.903 261.819 296.86 254.716 296.901C234.333 297.016 213.949 297.021 193.566 296.902C186.16 296.859 180.532 290.895 180.509 283.42C180.457 266.616 180.546 249.812 180.455 233.009C180.397 222.347 180.533 211.686 180.328 201.022C180.117 189.998 180.384 178.963 180.52 167.934C180.591 162.162 184.998 156.846 190.63 155.688C191.62 155.485 193.015 154.709 193.683 156.301C194.442 158.111 193.647 160.947 192.222 161.435C188.005 162.881 186.388 166.009 186.389 170.214C186.397 207.401 186.404 244.588 186.431 281.776C186.436 288.072 189.417 291.025 195.7 291.028C214.769 291.036 233.837 291.018 252.906 291.031C256.321 291.033 258.992 289.76 260.836 286.626Z" fill="black"/>
<path d="M206.604 216.771C210.596 208.96 218.688 204.491 226.641 205.597C235.318 206.803 242.342 213.387 243.735 222.071C244.674 227.92 242.894 233.185 239.171 237.791C237.38 240.008 235.523 242.207 235.001 245.133C234.81 246.202 234.789 247.302 234.705 248.39C234.505 250.966 233.21 252.268 230.689 252.287C226.525 252.318 222.361 252.318 218.197 252.286C215.622 252.266 214.406 251.186 214.283 248.619C214.089 244.562 212.381 241.298 209.843 238.171C204.677 231.807 203.053 224.717 206.604 216.771ZM238.455 227.385C238.261 226.759 237.93 226.082 238.375 225.493C239.723 223.71 238.979 222.111 238.168 220.396C237.339 218.644 235.721 217.346 235.421 215.274C235.307 214.492 234.464 213.968 233.686 213.727C232.347 213.314 231.171 212.729 230.128 211.74C229.233 210.892 228.006 210.711 226.854 211.269C225.74 211.809 225.467 212.84 225.484 214.028C225.526 216.946 225.509 219.864 225.512 222.783C225.518 227.452 225.502 232.122 225.536 236.791C225.547 238.435 225.974 239.875 227.951 240.116C228.968 240.24 233.536 237.642 233.956 236.707C234.027 236.55 233.903 236.306 233.827 235.849C231.545 237.044 229.31 237.439 227.555 235.177C226.946 234.392 226.896 233.445 227.728 232.765C228.323 232.746 228.49 233.084 228.706 233.377C228.921 233.668 229.129 233.989 229.411 234.203C230.68 235.168 231.59 234.88 231.901 233.382C232.051 232.658 232.026 231.796 232.908 231.639C234.018 231.442 234.066 232.432 234.36 233.167C234.816 234.31 236.07 234.367 236.374 233.561C237.11 231.61 239.304 230.173 238.455 227.385ZM216.377 213.171C215.328 213.356 214.165 213.786 213.834 214.69C212.954 217.094 211.104 218.921 210.2 221.28C209.688 222.614 209.452 223.947 210.199 225.287C210.455 225.745 210.618 226.274 210.361 226.756C208.889 229.518 211.082 231.266 212.227 233.241C212.69 234.041 213.736 234.722 214.279 233.118C214.52 232.403 214.669 231.562 215.543 231.567C216.653 231.573 216.5 232.607 216.71 233.355C217.12 234.809 217.981 235.222 219.328 234.349C219.9 233.978 220.374 233.242 221.265 233.708C221.833 234.568 221.362 235.222 220.779 235.804C218.961 237.62 217.022 236.242 215.052 235.764C214.912 238.054 216.907 238.124 217.934 239.06C219.033 240.062 220.282 240.517 221.741 239.814C223.227 239.098 223.133 237.729 223.131 236.414C223.118 229.049 223.094 221.684 223.077 214.319C223.075 213.064 223.171 211.727 221.682 211.193C220.248 210.679 218.967 211.047 217.879 212.134C217.524 212.489 217.089 212.765 216.377 213.171Z" fill="#1F2421"/>
<path d="M159.38 219.725C157.858 213.127 158.327 206.834 160.17 200.641C160.554 200.638 160.938 200.636 161.322 200.634C161.82 205.366 161.309 210.172 162.078 214.946C162.308 210.051 162.538 205.155 162.783 199.935C164.591 200.815 164.449 201.903 164.466 202.879C164.528 206.385 164.542 209.892 164.608 213.398C164.618 213.929 164.356 214.541 165.072 215.201C165.32 210.11 165.558 205.21 165.797 200.31C166.134 200.307 166.47 200.304 166.807 200.302C167.64 205.039 167.363 209.909 168 214.68C168.578 209.885 167.969 205.005 168.709 200.238C169.079 200.231 169.449 200.223 169.82 200.216C170.548 205.037 170.651 209.926 170.927 214.83C171.501 210.152 170.994 205.371 171.953 200.108C173.938 202.382 173.801 204.662 174.086 206.698C174.551 210.015 174.742 213.374 174.22 216.736C173.787 219.519 172.828 221.994 170.413 223.606C169.208 224.41 168.852 225.411 168.951 226.756C169.462 233.741 169.951 240.728 170.447 247.714C170.768 252.226 171.223 256.734 171.368 261.252C171.513 265.823 167.753 268.419 164.251 266.35C162.136 265.101 161.724 262.98 161.819 260.826C162.021 256.235 162.41 251.653 162.725 247.068C163.206 240.079 163.683 233.091 164.181 226.104C164.254 225.081 163.756 224.477 162.95 223.976C161.357 222.986 160.151 221.647 159.38 219.725Z" fill="#1F2421"/>
<path d="M286.375 224.062C286.145 236.258 286.907 248.189 288.076 260.1C288.104 260.39 288.123 260.682 288.134 260.973C288.261 264.437 286.351 266.925 283.487 267.031C280.618 267.137 278.271 264.793 278.431 261.342C278.713 255.23 279.325 249.131 279.823 243.029C279.989 240.996 280.227 238.969 280.439 236.94C280.519 236.182 280.435 235.451 279.886 234.894C277.394 232.363 276.888 229.082 276.668 225.805C276.161 218.258 276.615 210.787 279.145 203.564C279.726 201.903 280.367 200.267 281.638 198.992C282.427 198.2 283.338 197.5 284.541 197.86C285.866 198.258 286.237 199.424 286.282 200.631C286.37 203.037 286.371 205.447 286.376 207.856C286.386 213.184 286.377 218.513 286.375 224.062Z" fill="#1F2421"/>
<path d="M248.437 320.292C249.275 321.816 250.033 323.2 251.089 325.127C252.785 321.909 254.245 319.174 255.673 316.423C257.359 313.173 257.558 313.078 261.068 313.364C262.115 313.449 262.723 313.795 262.724 314.912C262.729 320.822 262.735 326.732 262.745 332.642C262.748 334.463 261.425 334.237 260.272 334.245C259.103 334.254 257.796 334.429 257.79 332.639C257.782 330.304 257.786 327.969 257.785 325.635C257.784 324.792 257.785 323.95 257.345 323.014C256.037 325.502 254.691 327.971 253.44 330.488C252.892 331.591 252.204 332.14 250.907 332.121C249.647 332.102 249.102 331.4 248.62 330.44C247.398 328.012 246.155 325.595 244.92 323.174C244.738 323.22 244.557 323.266 244.375 323.313C244.375 326.125 244.278 328.942 244.409 331.748C244.498 333.639 243.893 334.296 241.942 334.305C239.919 334.315 239.265 333.645 239.305 331.649C239.41 326.47 239.312 321.287 239.363 316.107C239.373 315.13 238.822 313.525 240.461 313.497C242.18 313.467 244.328 312.348 245.536 314.712C246.466 316.53 247.416 318.339 248.437 320.292Z" fill="#1F2421"/>
<path d="M296.736 325.889C295.895 324.79 295.145 323.816 294.396 322.842C294.225 322.865 294.054 322.889 293.883 322.913C293.883 325.614 293.881 328.316 293.884 331.018C293.887 334.188 292.941 334.894 289.754 334.235C288.797 334.037 288.604 333.434 288.602 332.667C288.584 326.767 288.58 320.866 288.588 314.965C288.589 314.299 288.669 313.497 289.515 313.469C291.126 313.416 292.879 312.794 294.157 314.483C296.27 317.276 298.432 320.032 300.576 322.802C301.063 323.431 301.559 324.052 302.583 324.626C302.583 321.852 302.578 319.077 302.584 316.303C302.59 313.681 304.874 312.329 307.233 313.516C307.898 313.851 307.904 314.428 307.905 314.999C307.918 320.837 307.917 326.676 307.907 332.514C307.906 333.256 307.858 334.156 306.893 334.16C305.369 334.165 303.655 334.916 302.424 333.31C300.559 330.878 298.693 328.446 296.736 325.889Z" fill="#1F2421"/>
<path d="M267.868 315.37C267.83 313.868 268.458 313.353 269.746 313.363C273.983 313.397 278.22 313.402 282.457 313.352C284.024 313.333 284.231 314.235 284.223 315.47C284.216 316.708 284.212 317.909 282.514 317.928C280.104 317.954 277.693 317.99 275.283 317.946C273.954 317.922 273.295 318.295 273.271 319.797C273.245 321.452 274.106 321.5 275.349 321.456C277.246 321.388 279.147 321.477 281.046 321.458C282.858 321.439 282.91 322.625 282.932 323.972C282.954 325.371 282.375 325.96 280.976 325.929C279.005 325.885 277.031 325.969 275.06 325.931C273.704 325.905 273.307 326.571 273.288 327.824C273.267 329.108 273.701 329.716 275.047 329.69C277.53 329.642 280.016 329.725 282.498 329.657C284.105 329.613 284.701 330.267 284.674 331.869C284.647 333.445 284.274 334.318 282.451 334.278C278.289 334.185 274.122 334.191 269.96 334.266C268.272 334.297 267.832 333.534 267.844 332.014C267.889 326.535 267.863 321.056 267.868 315.37Z" fill="#1F2421"/>
<path d="M314.928 331.812C313.202 329.753 312.534 327.483 312.527 324.996C312.518 321.781 312.597 318.563 312.506 315.351C312.438 312.927 314.116 313.454 315.503 313.356C317.013 313.25 318.053 313.516 318.003 315.425C317.918 318.711 317.952 322.002 318.012 325.289C318.064 328.147 319.521 329.701 322.032 329.737C324.586 329.773 326.089 328.292 326.17 325.421C326.259 322.282 326.315 319.132 326.155 315.998C326.043 313.779 326.988 313.351 328.984 313.311C331.14 313.269 331.786 314.009 331.671 316.089C331.518 318.858 331.585 321.643 331.66 324.417C331.771 328.464 330.619 331.88 326.686 333.603C322.541 335.418 318.56 334.995 314.928 331.812Z" fill="#1F2421"/>
<path d="M137.719 323.59C137.728 320.742 137.756 318.111 137.733 315.481C137.72 314.078 138.195 313.467 139.75 313.322C142.431 313.073 144.101 313.855 145.169 316.483C146.34 319.366 147.96 322.066 149.606 325.278C151.444 321.846 153.088 318.8 154.708 315.741C155.86 313.568 158.196 312.648 160.512 313.434C161.317 313.706 161.426 314.301 161.427 314.98C161.438 320.825 161.431 326.671 161.448 332.516C161.454 334.656 159.887 334.165 158.645 334.249C157.311 334.339 156.37 334.086 156.409 332.4C156.479 329.336 156.429 326.268 156.02 323.013C154.908 325.126 153.836 327.262 152.671 329.345C151.966 330.606 151.797 332.381 149.709 332.416C147.596 332.451 147.407 330.69 146.72 329.413C145.523 327.191 144.398 324.93 143.004 322.221C142.535 325.891 142.587 329.01 142.712 332.11C142.805 334.413 141.412 334.215 139.891 334.284C138.273 334.356 137.664 333.745 137.71 332.129C137.789 329.358 137.723 326.582 137.719 323.59Z" fill="#0B3B2E"/>
<path d="M198.707 328.617C195.327 328.538 195.188 328.543 195.312 331.768C195.396 333.945 194.423 334.276 192.574 334.292C190.674 334.309 189.786 333.861 189.832 331.74C189.946 326.416 189.909 321.087 189.827 315.761C189.8 313.985 190.378 313.234 192.219 313.35C195.343 313.546 198.501 313.05 201.606 313.622C204.49 314.154 206.856 315.453 207.655 318.576C208.462 321.725 207.829 324.497 205.401 326.757C205.138 327.002 204.784 327.149 204.375 327.402C205.767 329.693 206.993 331.711 208.242 333.768C204.253 335.107 202.574 334.482 200.785 331.228C200.269 330.289 199.973 329.164 198.707 328.617ZM196.068 318.045C194.562 319.654 195.103 321.64 195.544 323.308C195.874 324.555 197.574 323.868 198.67 323.988C199.095 324.034 199.542 323.983 199.968 323.911C201.638 323.627 202.531 322.627 202.51 320.925C202.488 319.235 201.626 318.177 199.91 318.023C198.76 317.92 197.595 317.987 196.068 318.045Z" fill="#0B3B2E"/>
<path d="M170.709 331.584C169.449 334.508 168.113 334.967 164.527 333.842C164.217 333.225 164.575 332.697 164.802 332.186C167.367 326.39 169.988 320.619 172.506 314.803C173.109 313.41 174.127 313.283 175.338 313.385C176.695 313.499 178.271 312.827 179.09 314.726C181.712 320.813 184.418 326.865 187.08 332.935C187.189 333.183 187.171 333.487 187.209 333.745C183.873 335.055 182.166 334.459 180.634 331.443C180.313 330.811 179.977 330.29 179.213 330.287C176.882 330.276 174.55 330.288 172.218 330.291C171.44 330.292 171.053 330.79 170.709 331.584ZM176.569 321.409C176.358 320.97 176.33 320.415 175.609 320.077C174.863 321.843 173.854 323.474 173.589 325.428C175.977 325.833 176.133 325.823 177.757 325.185C177.81 323.906 177.023 322.871 176.569 321.409Z" fill="#0B3B2E"/>
<path d="M118.213 322.311C116.46 318.252 117.875 315.046 121.845 313.655C125.52 312.367 129.03 313.099 132.49 314.473C134.511 315.276 133.333 316.55 132.933 317.7C132.528 318.86 132.027 319.623 130.552 318.903C128.918 318.105 127.18 317.514 125.301 317.592C124.341 317.632 123.534 317.943 123.378 318.996C123.232 319.977 123.953 320.444 124.735 320.733C126.716 321.465 128.72 322.136 130.704 322.862C132.97 323.691 133.997 325.473 134.109 327.749C134.217 329.945 133.208 331.702 131.397 332.931C127.841 335.346 120.812 334.884 117.542 332.102C115.873 330.681 117.251 329.393 117.77 328.201C118.387 326.783 119.374 327.824 120.113 328.241C121.724 329.148 123.397 329.885 125.25 329.951C126.486 329.995 127.934 329.874 128.247 328.358C128.576 326.763 127.079 326.558 126.034 326.162C123.732 325.29 121.173 325.063 119.18 323.429C118.846 323.156 118.595 322.783 118.213 322.311Z" fill="#0B3B2E"/>
<path d="M221.408 322.306C221.415 325.73 221.371 328.94 221.447 332.147C221.506 334.609 219.819 334.174 218.309 334.271C216.637 334.378 215.955 333.807 215.999 332.043C216.099 328.107 215.956 324.165 216.056 320.229C216.1 318.481 215.453 317.814 213.765 318C213.261 318.056 212.745 318.014 212.234 318.009C209.706 317.983 209.189 317.339 209.534 314.832C209.667 313.872 210.076 313.383 211.067 313.385C216.099 313.395 221.131 313.408 226.164 313.385C227.846 313.378 227.752 314.525 227.734 315.638C227.716 316.705 227.968 317.968 226.258 317.981C225.966 317.983 225.675 317.994 225.383 317.997C221.377 318.037 221.411 317.401 221.408 322.306Z" fill="#0B3B2E"/>
<path d="M223.192 261.84C221.304 261.789 219.627 261.817 217.966 261.666C216.893 261.569 215.953 261.023 215.967 259.758C215.983 258.384 217.022 258.163 218.111 258.157C222.329 258.136 226.546 258.135 230.764 258.125C231.933 258.123 232.825 258.564 232.827 259.841C232.83 261.073 231.936 261.683 230.824 261.729C228.355 261.832 225.881 261.812 223.192 261.84Z" fill="#1F2421"/>
<path d="M219.328 257.069C218.612 257.062 218.102 257.074 217.595 257.043C216.588 256.982 215.877 256.468 215.889 255.439C215.901 254.428 216.63 253.815 217.603 253.805C222.11 253.763 226.618 253.75 231.124 253.815C232.193 253.83 232.893 254.613 232.799 255.708C232.708 256.775 231.818 257.069 230.877 257.072C227.096 257.083 223.315 257.072 219.328 257.069Z" fill="#1F2421"/>
<path d="M228.812 262.91C229.199 263.199 229.371 263.468 229.211 263.752C228.106 265.705 226.26 266.309 224.209 266.175C222.238 266.047 220.364 265.514 219.435 263.042C222.649 262.35 225.651 262.591 228.812 262.91Z" fill="#1F2421"/>
<path d="M248.636 224.768C247.335 223.289 247.769 222.239 249.382 222.029C251.24 221.787 253.156 221.893 255.041 221.979C256.001 222.023 256.699 222.613 256.59 223.707C256.491 224.697 255.749 225.04 254.882 225.033C252.851 225.018 250.81 225.275 248.636 224.768Z" fill="#0B3B2E"/>
<path d="M206.589 207.941C205.246 206.479 204.018 205.132 202.834 203.747C202.16 202.958 201.822 202.047 202.776 201.252C203.643 200.53 204.439 201.005 205.073 201.694C206.257 202.981 207.411 204.296 208.55 205.623C209.034 206.187 209.472 206.845 208.988 207.599C208.416 208.488 207.613 208.589 206.589 207.941Z" fill="#0B3B2E"/>
<path d="M243.206 202.342C244.122 201.421 245.042 200.541 246.104 201.612C247.192 202.711 246.149 203.603 245.439 204.412C244.43 205.562 243.414 206.711 242.337 207.797C241.63 208.51 240.762 208.617 240.013 207.846C239.317 207.131 239.563 206.335 240.129 205.681C241.083 204.579 242.103 203.534 243.206 202.342Z" fill="#0B3B2E"/>
<path d="M197.675 221.9C198.449 221.953 199.04 221.95 199.601 222.078C200.38 222.256 200.911 222.754 200.884 223.609C200.857 224.47 200.302 224.989 199.496 225.015C197.606 225.075 195.711 225.07 193.82 225.009C193.009 224.982 192.455 224.476 192.448 223.604C192.442 222.743 192.948 222.241 193.779 222.159C195.009 222.037 196.245 221.984 197.675 221.9Z" fill="#0B3B2E"/>
<path d="M225.954 198.15C225.757 199.598 226.577 201.622 224.554 201.644C222.327 201.669 223.209 199.552 223.061 198.265C222.954 197.337 223.029 196.387 223.042 195.447C223.056 194.368 222.893 192.994 224.42 192.977C226.078 192.958 225.925 194.4 225.948 195.554C225.963 196.349 225.953 197.145 225.954 198.15Z" fill="#0B3B2E"/>
<path d="M226.979 216.696C226.998 215.744 227.192 215.021 227.835 214.583C228.531 214.11 229.394 213.368 230.143 214.236C230.784 214.979 229.934 215.441 229.407 215.96C227.927 217.416 228.326 219.831 230.2 220.694C231.666 221.369 232.303 222.412 232.078 223.991C231.873 225.433 231.1 226.415 229.655 226.735C228.867 226.91 228.065 226.902 227.715 226.051C227.809 225.243 228.385 225.195 228.842 225.029C229.492 224.793 230.054 224.498 230.078 223.697C230.102 222.91 229.604 222.406 228.956 222.266C226.992 221.844 226.635 220.587 226.927 218.848C227.034 218.209 226.963 217.541 226.979 216.696Z" fill="#1F2421"/>
<path d="M236.81 227.006C236.058 228.877 234.902 229.911 232.932 229.565C232.36 229.464 231.784 229.163 231.779 228.465C231.774 227.72 232.345 227.51 232.969 227.506C233.907 227.501 234.67 227.295 235.006 226.274C235.183 225.734 235.421 225.074 236.169 225.244C237.03 225.441 236.882 226.195 236.81 227.006Z" fill="#1F2421"/>
<path d="M229.17 229.167C229.743 228.971 230.207 228.799 230.52 229.215C230.834 229.633 230.566 230.044 230.27 230.371C229.982 230.691 229.654 230.976 229.33 231.262C228.836 231.698 228.279 232.243 227.705 231.471C227.248 230.856 227.507 230.226 228.087 229.774C228.369 229.556 228.703 229.405 229.17 229.167Z" fill="#1F2421"/>
<path d="M234.313 220.147C234.834 220.062 235.196 220.006 235.544 220.054C236.309 220.159 237.426 220.197 237.24 221.219C237.004 222.509 235.727 221.986 234.897 221.943C233.72 221.882 233.409 221.228 234.313 220.147Z" fill="#1F2421"/>
<path d="M234.115 217.77C233.912 218.077 233.779 218.309 233.597 218.358C232.847 218.558 231.994 218.937 231.447 218.074C231.112 217.545 231.543 217.103 232.023 216.861C232.972 216.385 233.845 216.235 234.115 217.77Z" fill="#1F2421"/>
<path d="M218.807 224.49C219.012 224.714 219.13 224.801 219.23 224.906C219.74 225.443 221.415 225.109 220.739 226.437C220.255 227.388 219 227.009 218.148 226.68C217.033 226.248 216.566 225.245 216.502 224.068C216.426 222.676 216.742 221.515 218.08 220.746C220.319 219.46 220.595 217.617 218.877 215.696C218.479 215.25 217.913 214.826 218.34 214.231C218.808 213.578 219.525 213.831 220.108 214.169C221.056 214.719 221.569 215.552 221.566 216.677C221.562 217.84 221.539 219.004 221.586 220.165C221.637 221.402 221.405 222.271 219.886 222.363C218.696 222.435 218.257 223.196 218.807 224.49Z" fill="#1F2421"/>
<path d="M212.912 228.623C212.49 228.016 212.126 227.551 211.911 227.025C211.581 226.221 211.567 225.378 212.569 225.064C213.482 224.777 213.56 225.537 213.753 226.19C214.01 227.063 214.531 227.762 215.565 227.779C216.26 227.791 217.026 227.826 216.868 228.749C216.726 229.583 215.945 229.82 215.17 229.739C214.361 229.653 213.675 229.227 212.912 228.623Z" fill="#1F2421"/>
<path d="M215.784 218.755C214.843 218.526 214.208 218.17 214.527 217.233C214.745 216.593 215.342 216.451 215.96 216.541C216.635 216.64 217.312 216.909 217.405 217.642C217.536 218.68 216.688 218.708 215.784 218.755Z" fill="#1F2421"/>
<path d="M213.126 222.015C212.236 221.959 211.548 221.785 211.899 220.882C212.247 219.989 213.129 220.037 213.92 220.079C214.536 220.111 215.118 220.343 215.085 221.053C215.029 222.252 214.046 221.95 213.126 222.015Z" fill="#1F2421"/>
<path d="M219.74 229.278C220.659 229.697 221.396 230.11 220.916 231.123C220.658 231.668 220.079 231.716 219.602 231.432C218.867 230.992 217.897 230.525 218.025 229.556C218.152 228.584 218.979 228.997 219.74 229.278Z" fill="#1F2421"/>
</svg>
