<?xml version="1.0" encoding="iso-8859-1"?>
<!-- Uploaded to: SVG Repo, www.svgrepo.com, Generator: SVG Repo Mixer Tools -->
<!DOCTYPE svg PUBLIC "-//W3C//DTD SVG 1.1//EN" "http://www.w3.org/Graphics/SVG/1.1/DTD/svg11.dtd">
<svg fill="#000000" height="800px" width="800px" version="1.1" id="Capa_1" xmlns="http://www.w3.org/2000/svg" xmlns:xlink="http://www.w3.org/1999/xlink" 
	 viewBox="0 0 202.912 202.912" xml:space="preserve">
<g>
	<path d="M35.329,134.666c7.786,2.663,16.838,4.264,26.526,5.223v39.248c0,13.109,10.666,23.775,23.778,23.775h31.645
		c13.11,0,23.776-10.666,23.776-23.775v-39.248c9.689-0.959,18.744-2.559,26.53-5.223c20.875-7.14,31.459-21.559,31.459-42.856
		C199.042,49.354,156.414,0,101.454,0C46.496,0,3.87,49.354,3.87,91.811C3.87,113.107,14.454,127.526,35.329,134.666z
		 M126.053,179.137c0,4.839-3.938,8.775-8.776,8.775H85.632c-4.84,0-8.778-3.937-8.778-8.775v-38.239
		c8.103,0.335,16.406,0.403,24.6,0.403c8.194,0,16.497-0.068,24.599-0.403V179.137z M101.454,15
		c45.749,0,82.588,42.02,82.588,76.811c0,29.329-26.631,34.49-82.588,34.49c-55.955,0-82.584-5.161-82.584-34.49
		C18.87,57.02,55.708,15,101.454,15z"/>
</g>
</svg>