<svg width="15" height="15" viewBox="0 0 15 15" fill="none" xmlns="http://www.w3.org/2000/svg">
<g clip-path="url(#clip0_186_93)">
<path d="M2.48424 3.875C2.46192 3.78848 2.41682 3.70953 2.35364 3.64635C2.29046 3.58317 2.2115 3.53807 2.12498 3.51575L0.591235 3.12025C0.565068 3.11282 0.542037 3.09706 0.525638 3.07536C0.509239 3.05366 0.500366 3.0272 0.500366 3C0.500366 2.9728 0.509239 2.94634 0.525638 2.92464C0.542037 2.90294 0.565068 2.88718 0.591235 2.87975L2.12498 2.484C2.21147 2.4617 2.29041 2.41664 2.35359 2.35351C2.41676 2.29038 2.46188 2.21147 2.48424 2.125L2.87973 0.591251C2.88709 0.564981 2.90283 0.541837 2.92457 0.52535C2.9463 0.508863 2.97283 0.499939 3.00011 0.499939C3.02739 0.499939 3.05392 0.508863 3.07565 0.52535C3.09739 0.541837 3.11313 0.564981 3.12049 0.591251L3.51573 2.125C3.53805 2.21152 3.58315 2.29048 3.64633 2.35366C3.70951 2.41684 3.78847 2.46193 3.87498 2.48425L5.40874 2.8795C5.43511 2.88678 5.45837 2.9025 5.47495 2.92427C5.49152 2.94604 5.5005 2.97264 5.5005 3C5.5005 3.02736 5.49152 3.05397 5.47495 3.07573C5.45837 3.0975 5.43511 3.11323 5.40874 3.1205L3.87498 3.51575C3.78847 3.53807 3.70951 3.58317 3.64633 3.64635C3.58315 3.70953 3.53805 3.78848 3.51573 3.875L3.12023 5.40875C3.11288 5.43502 3.09714 5.45817 3.0754 5.47465C3.05367 5.49114 3.02714 5.50006 2.99986 5.50006C2.97258 5.50006 2.94605 5.49114 2.92432 5.47465C2.90258 5.45817 2.88684 5.43502 2.87948 5.40875L2.48424 3.875Z" stroke="#81878C" stroke-width="0.7" stroke-linecap="round" stroke-linejoin="round"/>
</g>
<path d="M13.0968 5.68984C13.3832 5.40352 13.5441 5.01517 13.5441 4.61022C13.5442 4.20526 13.3834 3.81687 13.0971 3.53048C12.8107 3.2441 12.4224 3.08318 12.0174 3.08313C11.6125 3.08308 11.2241 3.2439 10.9377 3.53021L3.70862 10.7609C3.58286 10.8863 3.48985 11.0407 3.43779 11.2105L2.72225 13.5678C2.70825 13.6147 2.70719 13.6644 2.71919 13.7118C2.73118 13.7592 2.75579 13.8025 2.79039 13.837C2.82499 13.8716 2.86829 13.8961 2.91571 13.908C2.96312 13.92 3.01288 13.9188 3.0597 13.9048L5.41758 13.1898C5.58721 13.1382 5.74159 13.0457 5.86716 12.9205L13.0968 5.68984Z" stroke="#656C73" stroke-width="0.9" stroke-linecap="round" stroke-linejoin="round"/>
<g clip-path="url(#clip1_186_93)">
<path d="M7.24212 1.93747C7.23096 1.89421 7.20841 1.85473 7.17682 1.82314C7.14523 1.79155 7.10575 1.769 7.06249 1.75785L6.29562 1.5601C6.28253 1.55638 6.27102 1.5485 6.26282 1.53765C6.25462 1.5268 6.25018 1.51357 6.25018 1.49997C6.25018 1.48637 6.25462 1.47314 6.26282 1.46229C6.27102 1.45144 6.28253 1.44356 6.29562 1.43985L7.06249 1.24197C7.10574 1.23082 7.1452 1.20829 7.17679 1.17672C7.20838 1.14516 7.23094 1.10571 7.24212 1.06247L7.43987 0.295595C7.44354 0.28246 7.45142 0.270888 7.46228 0.262644C7.47315 0.254401 7.48642 0.249939 7.50005 0.249939C7.51369 0.249939 7.52696 0.254401 7.53783 0.262644C7.54869 0.270888 7.55657 0.28246 7.56024 0.295595L7.75787 1.06247C7.76903 1.10573 7.79158 1.14521 7.82317 1.1768C7.85476 1.20839 7.89423 1.23094 7.93749 1.2421L8.70437 1.43972C8.71756 1.44336 8.72918 1.45122 8.73747 1.4621C8.74576 1.47299 8.75025 1.48629 8.75025 1.49997C8.75025 1.51365 8.74576 1.52695 8.73747 1.53784C8.72918 1.54872 8.71756 1.55658 8.70437 1.56022L7.93749 1.75785C7.89423 1.769 7.85476 1.79155 7.82317 1.82314C7.79158 1.85473 7.76903 1.89421 7.75787 1.93747L7.56012 2.70435C7.55644 2.71748 7.54857 2.72905 7.5377 2.7373C7.52684 2.74554 7.51357 2.75 7.49993 2.75C7.48629 2.75 7.47302 2.74554 7.46216 2.7373C7.45129 2.72905 7.44342 2.71748 7.43974 2.70435L7.24212 1.93747Z" stroke="#81878C" stroke-width="0.4" stroke-linecap="round" stroke-linejoin="round"/>
</g>
<defs>
<clipPath id="clip0_186_93">
<rect width="6" height="6" fill="white"/>
</clipPath>
<clipPath id="clip1_186_93">
<rect width="3" height="3" fill="white" transform="translate(6)"/>
</clipPath>
</defs>
</svg>
